<svg xmlns="http://www.w3.org/2000/svg" width="1060.66" height="1060.66" viewBox="0 0 1060.66 1060.66">
  <g id="Union_1" data-name="Union 1" transform="translate(204.354 239.709) rotate(-45)" fill="#fff">
    <path d="M 150.0003509521484 785.9999389648438 L -325.0001220703125 785.9999389648438 L -325.0001220703125 311.0004272460938 C -325.0001220703125 186.9348907470703 -224.0654144287109 86.00017547607422 -99.99989318847656 86.00017547607422 C 24.06563758850098 86.00017547607422 125.0003433227539 186.9348907470703 125.0003433227539 311.0004272460938 L 125.0003433227539 336.0004272460938 L 150.0003509521484 336.0004272460938 C 274.0653991699219 336.0004272460938 374.9996337890625 436.9346618652344 374.9996337890625 560.9996948242188 C 374.9996337890625 685.0652465820312 274.0653991699219 785.9999389648438 150.0003509521484 785.9999389648438 Z" stroke="none"/>
    <path d="M 150.0003204345703 760.9999389648438 C 260.2803344726562 760.9999389648438 349.9996032714844 671.2802124023438 349.9996032714844 560.9996337890625 C 349.9996032714844 450.7196350097656 260.2803344726562 361.0003356933594 150.0003204345703 361.0003356933594 L 100.0003280639648 361.0003356933594 L 100.0003280639648 311.0003356933594 C 100.0003280639648 200.7199249267578 10.28061294555664 111.0002059936523 -99.99996185302734 111.0002059936523 C -210.2803802490234 111.0002059936523 -300.0000915527344 200.7199249267578 -300.0000915527344 311.0003356933594 L -300.0000915527344 760.9999389648438 L 150.0003204345703 760.9999389648438 M 150.0003204345703 810.9999389648438 L -350.0000915527344 810.9999389648438 L -350.0000915527344 311.0003356933594 C -350.0000915527344 172.9287719726562 -238.071533203125 61.00020217895508 -99.99996185302734 61.00020217895508 C 38.07089996337891 61.00020217895508 150.0003204345703 172.9287719726562 150.0003204345703 311.0003356933594 C 288.0711975097656 311.0003356933594 399.9996032714844 422.9289245605469 399.9996032714844 560.9996337890625 C 399.9996032714844 699.0714721679688 288.0711975097656 810.9999389648438 150.0003204345703 810.9999389648438 Z" stroke="none" fill="#38460b"/>
  </g>
</svg>
